HIERARCHY
ROOT Hips
{
	OFFSET 0.00000 0.00000 0.00000
	CHANNELS 6 Xposition Yposition Zposition Zrotation Yrotation Xrotation 
	JOINT LHipJoint
	{
		OFFSET 0 0 0
		CHANNELS 3 Zrotation Yrotation Xrotation
		JOINT LeftHip
		{
			OFFSET 1.57338 -1.94743 0.52196
			CHANNELS 3 Zrotation Yrotation Xrotation
			JOINT LeftKnee
			{
				OFFSET 2.60333 -7.15259 0.00000
				CHANNELS 3 Zrotation Yrotation Xrotation
				JOINT LeftAnkle
				{
					OFFSET 2.77855 -7.63400 0.00000
					CHANNELS 3 Zrotation Yrotation Xrotation
					JOINT LeftToe
					{
						OFFSET 0.19847 -0.54529 2.28466
						CHANNELS 3 Zrotation Yrotation Xrotation
						End Site
						{
							OFFSET 0.00000 -0.00000 1.17993
						}
					}
				}
			}
		}
	}
	JOINT RHipJoint
	{
		OFFSET 0 0 0
		CHANNELS 3 Zrotation Yrotation Xrotation
		JOINT RightHip
		{
			OFFSET -1.61527 -1.94743 0.52196
			CHANNELS 3 Zrotation Yrotation Xrotation
			JOINT RightKnee
			{
				OFFSET -2.53829 -6.97390 0.00000
				CHANNELS 3 Zrotation Yrotation Xrotation
				JOINT RightAnkle
				{
					OFFSET -2.80762 -7.71387 0.00000
					CHANNELS 3 Zrotation Yrotation Xrotation
					JOINT RightToe
					{
						OFFSET -0.30536 -0.83898 2.28801
						CHANNELS 3 Zrotation Yrotation Xrotation
						End Site
						{
							OFFSET -0.00000 -0.00000 1.21323
						}
					}
				}
			}
		}
	}
	JOINT lowerback
	{
		OFFSET 0 0 0
		CHANNELS 3 Zrotation Yrotation Xrotation
		JOINT Chest
		{
			OFFSET -0.04381 1.99497 -0.19778
			CHANNELS 3 Zrotation Yrotation Xrotation
			JOINT Chest2
			{
				OFFSET -0.01959 2.01295 -0.04372
				CHANNELS 3 Zrotation Yrotation Xrotation
				JOINT lowerneck
				{
					OFFSET 0 0 0
					CHANNELS 3 Zrotation Yrotation Xrotation
					JOINT Neck
					{
						OFFSET -0.05459 1.76913 0.09708
						CHANNELS 3 Zrotation Yrotation Xrotation
						JOINT Head
						{
							OFFSET 0.09461 1.77368 -0.11172
							CHANNELS 3 Zrotation Yrotation Xrotation
							End Site
							{
								OFFSET 0.03812 1.78157 -0.04834
							}
						}
					}
				}
				JOINT LeftCollar
				{
					OFFSET 0 0 0
					CHANNELS 3 Zrotation Yrotation Xrotation
					JOINT LeftShoulder
					{
						OFFSET 3.50922 1.24034 -0.28866
CHANNELS 3 Zrotation Xrotation Yrotation
						JOINT LeftElbow
						{
OFFSET 0 -5.401880 0.000000
CHANNELS 3 Zrotation Xrotation Yrotation
							JOINT LeftWrist
							{
OFFSET 0 -3.685590 0.000000
CHANNELS 3 Zrotation Xrotation Yrotation
								JOINT lhand
								{
									OFFSET 0 0 0
CHANNELS 3 Zrotation Xrotation Yrotation
									JOINT LFingers
									{
OFFSET 0 -0.617530 0.000000
CHANNELS 3 Zrotation Xrotation Yrotation
										End Site
										{
OFFSET 0 -0.497870 0.000000
										}
									}
								}
								JOINT LThumb
								{
OFFSET 0 0.000000 0.000000
CHANNELS 3 Zrotation Xrotation Yrotation
									End Site
									{
OFFSET 0 -0.505470 0.505470
									}
								}
							}
						}
					}
				}
				JOINT RightCollar
				{
					OFFSET 0 0 0
					CHANNELS 3 Zrotation Yrotation Xrotation
					JOINT RightShoulder
					{
						OFFSET -2.95373 1.39649 -0.27346
CHANNELS 3 Zrotation Xrotation Yrotation
						JOINT RightElbow
						{
OFFSET 0 -6.106700 -0.000000
CHANNELS 3 Zrotation Xrotation Yrotation
							JOINT RightWrist
							{
OFFSET 0 -3.630520 0.000000
CHANNELS 3 Zrotation Xrotation Yrotation
								JOINT rhand
								{
									OFFSET 0 0 0
CHANNELS 3 Zrotation Xrotation Yrotation
									JOINT RFingers
									{
OFFSET 0 -0.583850 0.000000
CHANNELS 3 Zrotation Xrotation Yrotation
										End Site
										{
OFFSET 0 -0.470710 0.000000
										}
									}
								}
								JOINT RThumb
								{
OFFSET 0 0.000000 0.000000
CHANNELS 3 Zrotation Xrotation Yrotation
									End Site
									{
OFFSET 0 -0.477900 0.477900
									}
								}
							}
						}
					}
				}
			}
		}
	}
}
MOTION
Frames: 10
Frame Time: 0.008333333333333333
0.114514 18.692492 0.769578 -3.444244 -19.344201 -1.904633 0.000000 0.000000 0.000000 -18.781200 -8.071426 -1.680937 1.897247 8.648724 24.702664 0.836703 -0.465806 -17.137593 0.069551 1.700523 4.678740 0.000000 0.000000 0.000000 16.810827 25.894442 -8.277938 -3.320072 -11.195939 32.943670 -0.305763 -7.255323 -15.541865 -0.235698 3.123734 -8.623487 -2.534939 -1.572340 9.192545 -0.245230 -2.369126 0.636979 1.472284 -1.127496 -4.398819 -10.150297 -4.943550 -10.896349 7.635653 -6.350977 16.348160 3.542367 -3.039735 7.379312 0.000000 0.000000 0.000000 5.639331 -5.578657 -26.681239 20.020049 -30.666524 5.541600 23.138866 3.188331 -26.127725 0.000000 0.000000 0.000000 -7.125000 0.000000 0.000000 -7.597846 57.894129 2.406868 0.000000 0.000000 0.000000 -12.037522 9.997161 35.143597 -22.695133 -33.753665 -6.968131 -21.760520 1.804497 -1.025136 0.000000 0.000000 0.000000 7.125000 0.000000 0.000000 3.747960 28.867604 1.475597
0.056564 18.632587 0.943908 -3.552991 -19.684208 -1.614506 0.000000 0.000000 0.000000 -18.654905 -8.182066 -1.950847 2.118586 9.108813 26.136231 0.950044 -1.570957 -17.959144 0.078298 1.805229 4.967687 0.000000 0.000000 0.000000 20.363077 26.221235 -8.352645 -2.761988 -10.299458 29.951931 -0.746722 5.535820 -15.403633 -0.525718 4.646473 -12.902978 -2.317278 -1.739896 8.967856 -0.049829 -2.553938 0.665317 1.566773 -1.224329 -4.236152 -10.321229 -4.959767 -11.031763 7.870858 -6.344536 15.886775 3.644063 -3.021576 7.266135 0.000000 0.000000 0.000000 4.978903 -5.896749 -28.570183 19.489338 -30.022128 5.273432 24.891937 3.398419 -22.826710 0.000000 0.000000 0.000000 -7.125000 0.000000 0.000000 -4.432510 54.817325 1.070485 0.000000 0.000000 0.000000 -11.879085 10.174977 34.317737 -22.295580 -33.309432 -6.747477 -22.156384 2.088388 -1.227470 0.000000 0.000000 0.000000 7.125000 0.000000 0.000000 3.433640 28.647779 1.369355
-0.064915 18.535103 1.084692 -2.455064 -18.390454 -1.634304 0.000000 0.000000 0.000000 -19.187178 -8.032562 -2.864201 2.356160 9.571530 27.600145 0.957753 -4.327892 -17.551646 0.113370 2.170369 5.976636 0.000000 0.000000 0.000000 22.487622 28.203549 -8.088168 -2.961533 -10.632555 31.050453 -0.017489 16.635997 -11.866443 -0.362211 3.862262 -10.689913 -2.548708 -2.128480 8.979626 -0.251967 -3.102374 0.701117 1.552128 -1.494337 -4.181442 -10.685479 -5.081117 -11.074170 7.799676 -6.416249 15.737632 3.670445 -3.080613 7.243543 0.000000 0.000000 0.000000 4.378277 -6.347920 -28.402034 17.965183 -28.112371 4.532898 21.878091 6.886858 -26.950213 0.000000 0.000000 0.000000 -7.125000 0.000000 0.000000 -9.369850 58.452201 3.100226 0.000000 0.000000 0.000000 -11.533402 10.860662 34.049844 -21.808321 -32.759661 -6.481831 -21.976362 2.676969 -1.693823 0.000000 0.000000 0.000000 7.125000 0.000000 0.000000 3.560434 28.147034 1.462379
-0.204204 18.467817 1.244968 -0.583840 -14.429748 -1.816586 0.000000 0.000000 0.000000 -20.088039 -7.135068 -4.122781 2.481601 9.804304 28.345385 0.661597 -9.262906 -14.939236 0.169478 2.651945 7.311162 0.000000 0.000000 0.000000 22.387251 29.874518 -6.691337 -3.181715 -10.983581 32.224669 -0.208017 12.753166 -11.460626 -0.030701 -1.092539 3.003792 -2.003135 -2.791918 8.851489 -0.657250 -3.939385 0.940470 0.913425 -1.927446 -3.890182 -11.645422 -5.511849 -10.296888 7.521709 -6.826441 14.964279 3.700921 -3.364211 6.926743 0.000000 0.000000 0.000000 3.425805 -7.223587 -27.297058 15.965574 -25.473872 3.631257 22.233354 9.917797 -23.868494 0.000000 0.000000 0.000000 -7.125000 0.000000 0.000000 -7.609727 55.365810 1.951254 0.000000 0.000000 0.000000 -10.996300 12.131268 33.110508 -21.198804 -32.059626 -6.155139 -23.536533 2.512917 -4.183169 0.000000 0.000000 0.000000 7.125000 0.000000 0.000000 2.340644 25.417762 1.109441
-0.342613 18.472525 1.360679 0.315521 -9.990293 -1.821215 0.000000 0.000000 0.000000 -20.015303 -6.565635 -5.009931 2.534467 9.900159 28.654073 0.129607 -13.372755 -10.923446 0.298024 3.509112 9.699496 0.000000 0.000000 0.000000 22.530648 28.755011 -5.637521 -3.129737 -10.902233 31.950795 -0.517744 7.256312 -13.030102 -0.015667 -0.803743 2.209051 -0.298134 -2.978420 8.984351 -0.388982 -4.005269 1.515651 0.237205 -1.987730 -3.462067 -12.246266 -6.174589 -8.654632 6.640912 -7.613088 13.451933 3.464445 -3.855300 6.234278 0.000000 0.000000 0.000000 1.872533 -7.515809 -25.953021 15.345632 -24.625399 3.368642 21.899795 11.920373 -24.058807 0.000000 0.000000 0.000000 -7.125000 0.000000 0.000000 -8.035272 55.494343 2.085679 0.000000 0.000000 0.000000 -10.985108 12.864124 32.163490 -19.687080 -30.263249 -5.372886 -24.085810 3.079668 -3.913050 0.000000 0.000000 0.000000 7.125000 0.000000 0.000000 1.924068 25.694418 0.899965
-0.529809 18.498923 1.367586 1.066122 -6.128698 -1.224985 0.000000 0.000000 0.000000 -19.298706 -6.117716 -9.051256 3.219386 11.041297 32.420015 -0.502002 -16.096706 -5.022236 0.330129 3.692281 10.212650 0.000000 0.000000 0.000000 21.941670 27.491896 -6.330477 -3.161916 -10.952625 32.120282 -0.670891 4.875794 -14.593125 -0.003788 -0.394879 1.085015 0.807025 -2.613360 9.429111 0.028193 -3.391516 1.584584 -0.001487 -1.692018 -3.677585 -11.784747 -6.705610 -8.114113 5.465436 -8.370109 15.827254 2.939724 -4.321117 6.907809 0.000000 0.000000 0.000000 1.534138 -5.465506 -25.447726 16.588889 -26.312548 3.903420 22.773201 12.017609 -23.950495 0.000000 0.000000 0.000000 -7.125000 0.000000 0.000000 -7.075657 55.560657 1.848941 0.000000 0.000000 0.000000 -11.231600 12.685517 32.339765 -17.141396 -27.043131 -4.151829 -20.493426 7.901903 -2.208556 0.000000 0.000000 0.000000 7.125000 0.000000 0.000000 4.690727 27.610411 1.983461
-0.744279 18.484986 1.291218 2.274331 -1.187219 -0.736192 0.000000 0.000000 0.000000 -18.429819 -5.651597 -15.650045 4.639277 12.964671 39.238051 -1.058292 -17.962889 4.670226 0.296959 3.504008 9.685379 0.000000 0.000000 0.000000 20.719499 25.936027 -7.712903 -3.333947 -11.216951 33.015148 -0.800976 2.361744 -16.276936 -0.003694 -0.391702 1.076271 1.273396 -2.403002 10.085327 0.407325 -3.036085 1.824199 0.107767 -1.516923 -3.792534 -11.538613 -6.182756 -7.365032 4.963009 -7.780477 18.901466 2.812521 -4.114388 7.695326 0.000000 0.000000 0.000000 2.395827 -3.854159 -25.170528 17.171435 -27.083231 4.165105 19.705262 11.349994 -29.236279 0.000000 0.000000 0.000000 -7.125000 0.000000 0.000000 -13.061256 60.237789 4.904000 0.000000 0.000000 0.000000 -11.820105 11.259095 33.050031 -15.281187 -24.536321 -3.341786 -22.134897 9.530461 -5.387060 0.000000 0.000000 0.000000 7.125000 0.000000 0.000000 3.391754 24.168073 1.708599
-0.944400 18.541377 1.198243 2.776037 2.359558 -0.402001 0.000000 0.000000 0.000000 -16.491891 -2.831167 -22.030370 5.801491 14.233134 44.179644 -1.019207 -17.570813 7.843889 0.166757 -2.617825 -7.217141 0.000000 0.000000 0.000000 20.439255 24.287783 -8.004866 -3.128862 -10.900728 31.945978 -0.781419 0.208027 -16.640087 -0.000428 -0.129188 0.354891 2.442674 -1.759123 10.776693 0.839347 -2.016382 2.071911 -0.219435 -1.020967 -3.930451 -10.300343 -4.690375 -6.685737 4.472036 -5.995901 23.953431 2.668527 -3.288353 9.056802 0.000000 0.000000 0.000000 3.955302 -3.171762 -23.244269 16.469861 -26.153541 3.850768 24.248577 10.518470 -22.695788 0.000000 0.000000 0.000000 -7.125000 0.000000 0.000000 -5.065196 54.549190 1.190969 0.000000 0.000000 0.000000 -12.545818 11.315316 32.193930 -16.509721 -26.206934 -3.868320 -23.240780 9.072902 -5.314778 0.000000 0.000000 0.000000 7.125000 0.000000 0.000000 2.567833 24.199099 1.290430
-1.107446 18.642042 1.125501 3.927644 5.171965 0.358994 0.000000 0.000000 0.000000 -15.292321 -0.685470 -25.064501 5.492498 13.917552 42.908794 -0.400844 -12.761101 -1.991623 0.498403 -4.525450 -12.559986 0.000000 0.000000 0.000000 19.350800 23.609868 -7.843926 -2.816354 -10.391626 30.254537 -0.697848 -2.322451 -16.789468 -0.008999 -0.595411 1.636162 2.904221 -1.386223 10.759104 0.910468 -1.474993 2.560034 -0.489453 -0.747479 -3.408301 -8.328710 -2.620713 -6.632204 4.680071 -3.576402 29.839268 2.753323 -2.005279 10.925242 0.000000 0.000000 0.000000 5.480001 -2.271810 -17.942782 15.777133 -25.217240 3.550675 25.305365 11.011685 -24.237412 0.000000 0.000000 0.000000 -7.125000 0.000000 0.000000 -4.474704 56.396913 1.251732 0.000000 0.000000 0.000000 -13.360917 8.787859 29.897413 -17.665139 -27.726123 -4.392383 -23.260862 7.900492 -4.337839 0.000000 0.000000 0.000000 7.125000 0.000000 0.000000 2.547807 25.259440 1.218227
-1.251519 18.740728 1.069868 5.825200 8.224116 1.214003 0.000000 0.000000 0.000000 -13.912580 -0.925028 -24.247036 4.083755 12.270009 36.695402 0.082638 -5.135358 -5.845190 0.353245 -3.818594 -10.566945 0.000000 0.000000 0.000000 17.577502 24.244915 -7.033495 -2.542226 -9.914107 28.699228 -0.625724 -5.594144 -18.020902 -0.024830 -1.017547 2.797119 2.307097 -1.359387 10.546651 0.802622 -1.522092 3.101449 -0.272971 -0.756405 -2.717859 -7.403004 -1.292672 -3.935029 5.307104 -2.212737 31.793870 3.031053 -1.236627 11.016669 0.000000 0.000000 0.000000 7.010407 -0.146313 -14.593760 15.101297 -24.286920 3.267532 26.674897 9.847703 -22.972080 0.000000 0.000000 0.000000 -7.125000 0.000000 0.000000 -2.584023 55.340376 0.656403 0.000000 0.000000 0.000000 -14.253520 7.226555 27.358786 -20.343218 -31.053091 -5.707597 -23.020082 4.755925 -2.882101 0.000000 0.000000 0.000000 7.125000 0.000000 0.000000 2.736362 26.846422 1.206839
